<svg width="40" height="40" viewBox="0 0 40 40" fill="none" xmlns="http://www.w3.org/2000/svg">
<g clip-path="url(#clip0_169_116)">
<circle cx="20" cy="20" r="20" fill="#313131"/>
<mask id="mask0_169_116" style="mask-type:alpha" maskUnits="userSpaceOnUse" x="0" y="0" width="40" height="40">
<circle cx="20" cy="20" r="20" fill="#FF6B00"/>
</mask>
<g mask="url(#mask0_169_116)">
<path d="M19.6766 4.729C27.5218 4.729 33.863 11.1515 33.863 18.9967C33.863 23.7119 31.5867 27.8581 28.0909 30.4596C30.733 34.2399 34.3101 36.6788 40.0009 36.6788L37.7246 41.3941C31.0989 41.9632 29.8388 37.0447 27.156 31.0693C24.9609 32.4107 22.4407 33.2237 19.6766 33.2237C11.8314 33.2237 5.49023 26.8419 5.49023 18.9967C5.49023 11.1515 11.8314 4.729 19.6766 4.729ZM12.116 24.6468C11.1404 22.1266 12.5224 19.2812 14.9614 18.5089C17.8068 17.574 22.0749 19.2406 25.9365 26.8825C26.4649 27.9394 27.034 28.8743 27.6031 29.7686C31.0176 26.6793 31.1802 20.0942 27.847 14.2814C24.1073 7.8183 17.4409 4.68836 12.9289 7.28987C8.41694 9.89138 7.80721 17.2488 11.5062 23.7119C11.6688 24.0371 11.8721 24.3217 12.116 24.6468ZM26.8714 30.3783C26.5869 29.8092 26.343 29.2808 26.0584 28.6711C19.3108 15.4602 10.0429 22.777 14.1484 27.2077C17.8881 31.1506 22.8472 32.7359 26.4243 30.6628C26.5462 30.5815 26.7088 30.4596 26.8714 30.3783Z" fill="#F9F9F9"/>
</g>
</g>
<defs>
<clipPath id="clip0_169_116">
<rect width="40" height="40" fill="white"/>
</clipPath>
</defs>
</svg>
