<svg width="196" height="49" viewBox="0 0 196 49" fill="none" xmlns="http://www.w3.org/2000/svg">
<path d="M177.58 14.5679C181.42 14.5679 182.956 17.2559 182.956 20.2319V23.2079C183.052 23.0639 183.148 22.8239 183.292 22.5839C185.164 18.5519 186.22 14.5679 190.108 14.5679C193.948 14.5679 195.484 17.2559 195.484 20.2319V38.9999H190.492C190.492 38.6159 190.492 22.4879 190.492 21.8159C190.54 16.8719 187.324 17.2559 185.068 20.9039C183.868 22.8719 182.956 25.5599 182.956 28.3439V38.9999H177.964C177.964 38.6159 177.964 22.4879 177.964 21.8159C178.012 16.8719 174.796 17.2559 172.54 20.9039C171.34 22.8719 170.428 25.5599 170.428 28.3439V38.9999H165.484V23.0639C165.484 21.1439 165.628 16.5839 163.756 14.5679H169.9C170.812 16.4879 170.188 20.0879 169.276 22.0559C168.94 22.7759 169.036 23.4479 169.372 23.6399C169.708 23.8799 170.236 23.6399 170.716 22.5839C172.636 18.5519 173.692 14.5679 177.58 14.5679Z" fill="#222222"/>
<path d="M146.484 38.9999C142.644 39.0959 141.108 36.3119 141.108 33.2879C141.108 26.8079 141.108 29.4959 141.108 23.0639C141.108 21.1439 141.252 16.5839 139.428 14.5679H146.004C146.004 23.3039 146.1 22.9679 146.004 31.7519C146.004 40.4399 154.692 33.2399 154.692 25.2239C154.692 21.4319 154.692 26.7599 154.692 23.0639C154.692 21.1439 154.884 16.5839 152.964 14.5679H159.636C159.636 22.9199 159.636 22.1519 159.636 30.5519C159.636 32.4719 159.444 36.9839 161.364 38.9999H155.172C154.308 37.1279 154.932 33.4799 155.844 31.5119C156.132 30.7439 156.036 30.1679 155.7 29.9279C155.364 29.7359 154.836 29.9279 154.356 30.9839C152.724 34.5359 150.948 38.9519 146.484 38.9999Z" fill="#222222"/>
<path d="M135.248 19.7039C130.016 19.7039 128.48 15.9119 124.736 15.2879C123.536 15.0479 122.576 15.4319 121.952 16.1039C120.896 17.2559 121.232 19.3679 124.208 20.8079C127.328 22.2959 130.592 23.9759 133.472 25.6559C139.76 29.3519 135.92 38.9999 129.344 38.9999C126.944 38.9999 125.648 38.3279 124.208 37.9439C122.768 37.5599 121.28 37.5119 118.64 38.9519L117.824 33.0959C121.52 32.0879 123.392 32.9519 125.504 34.4399C129.968 37.5119 132.608 37.3199 133.712 36.0239C134.864 34.4879 134 31.5599 131.312 29.9759C128.528 28.3439 124.544 26.3759 122.432 25.4159C120.032 24.2159 117.92 22.3439 118.208 19.5599C118.448 16.6799 121.136 14.5679 124.88 14.5679C128.816 14.5679 131.504 15.8639 134.816 14.5679L135.248 19.7039Z" fill="#222222"/>
<path d="M83.7498 14.6638C84.0378 14.6638 84.2298 14.6638 84.4698 14.6638C82.5018 13.2718 81.5898 11.1118 81.5898 8.9998C81.6378 5.0638 84.9498 0.983799 90.6618 0.9358C93.8778 0.8878 96.2298 1.8478 97.8618 3.5758C99.8298 5.6398 100.694 8.7598 100.694 12.4078V21.4318C102.518 18.5998 106.31 14.7118 109.862 14.6638C111.542 14.6158 113.03 15.1438 113.75 16.6318C114.326 17.8798 114.134 19.6078 113.126 21.0478C111.878 22.8718 109.19 23.9278 107.414 25.2238C106.694 25.8478 106.406 26.6638 106.55 27.2878C106.742 27.8638 107.222 28.2478 108.038 28.2958C108.326 28.2958 108.566 28.2478 108.902 28.2478C110.342 28.0558 111.302 28.2478 111.974 28.8238C112.646 29.3998 112.934 30.2638 112.982 31.5598C113.078 34.0558 112.598 37.2718 115.382 39.1438H109.094C107.606 36.9838 108.134 33.6238 108.95 31.4158C109.526 29.8318 109.334 28.9198 108.038 29.0638C107.414 29.1118 106.742 29.2078 106.022 29.2078C104.774 29.1598 104.15 28.2958 104.054 27.5758C103.862 26.6638 104.63 25.8478 106.022 25.0318C106.502 24.7438 107.222 24.3118 107.846 23.9278C109.43 22.8718 109.814 21.1918 109.238 20.0398C108.758 18.9358 107.414 18.2638 105.542 19.0318C103.574 19.7518 101.462 21.5278 100.694 22.4878V39.1438H95.7498C95.7498 31.5598 95.7498 23.9758 95.7498 16.4398C95.7498 13.5118 96.0378 9.1918 94.5978 6.4078C93.6858 4.7758 92.1498 3.6718 89.6058 3.7678C86.6778 3.9118 83.7978 5.6878 83.4618 8.9998C83.2698 11.2078 84.2298 13.6078 86.2458 14.9518C86.5818 14.9998 86.8698 15.0478 87.1578 15.0958C89.2218 15.7198 90.1818 16.0558 92.3898 15.9118L90.5658 21.2878C88.6458 20.9038 87.3498 19.7038 85.4778 18.3598C82.9338 16.4878 80.1498 15.8638 78.0378 17.0638C75.3498 18.5998 74.7258 22.7758 76.1178 27.1438C77.2698 30.5518 79.2378 33.7678 82.2618 35.4478C85.0458 36.9838 89.3658 37.2238 91.9578 35.0638L92.3898 35.5918C90.1818 37.7518 87.1578 39.1438 83.7498 39.1438C77.0298 39.1438 71.5098 33.6718 71.5098 26.8558C71.5098 20.1358 77.0298 14.6638 83.7498 14.6638Z" fill="#222222"/>
<path d="M64.9952 6.31201C66.6752 6.31201 68.1152 7.56001 68.1152 9.09601C68.1152 10.68 66.6752 11.928 64.9952 11.928C63.3152 11.928 61.9232 10.68 61.9232 9.09601C61.9232 7.56001 63.3152 6.31201 64.9952 6.31201ZM62.5472 23.064C62.5472 21.144 62.7392 16.584 60.8672 14.568H67.5392V39H62.5472C62.5472 30.648 62.5472 31.368 62.5472 23.064Z" fill="#222222"/>
<path d="M43.5931 38.9999C39.7531 39.0959 38.2171 36.3119 38.2171 33.2879C38.2171 26.8079 38.2171 29.4959 38.2171 23.0639C38.2171 21.1439 38.3611 16.5839 36.5371 14.5679H43.1131C43.1131 23.3039 43.2091 22.9679 43.1131 31.7519C43.1131 40.4399 51.8011 33.2399 51.8011 25.2239C51.8011 21.4319 51.8011 26.7599 51.8011 23.0639C51.8011 21.1439 51.9931 16.5839 50.0731 14.5679H56.7451C56.7451 22.9199 56.7451 22.1519 56.7451 30.5519C56.7451 32.4719 56.5531 36.9839 58.4731 38.9999H52.2811C51.4171 37.1279 52.0411 33.4799 52.9531 31.5119C53.2411 30.7439 53.1451 30.1679 52.8091 29.9279C52.4731 29.7359 51.9451 29.9279 51.4651 30.9839C49.8331 34.5359 48.0571 38.9519 43.5931 38.9999Z" fill="#222222"/>
<path d="M17.1036 5.3999C26.3676 5.3999 33.8556 12.9839 33.8556 22.2479C33.8556 27.8159 31.1676 32.7119 27.0396 35.7839C30.1596 40.2479 34.3836 43.1279 41.1036 43.1279L38.4156 48.6959C30.5916 49.3679 29.1036 43.5599 25.9356 36.5039C23.3436 38.0879 20.3676 39.0479 17.1036 39.0479C7.83956 39.0479 0.351562 31.5119 0.351562 22.2479C0.351562 12.9839 7.83956 5.3999 17.1036 5.3999ZM8.17556 28.9199C7.02356 25.9439 8.65556 22.5839 11.5356 21.6719C14.8956 20.5679 19.9356 22.5359 24.4956 31.5599C25.1196 32.8079 25.7916 33.9119 26.4636 34.9679C30.4956 31.3199 30.6876 23.5439 26.7516 16.6799C22.3356 9.0479 14.4636 5.3519 9.13556 8.4239C3.80756 11.4959 3.08756 20.1839 7.45556 27.8159C7.64756 28.1999 7.88756 28.5359 8.17556 28.9199ZM25.5996 35.6879C25.2636 35.0159 24.9756 34.3919 24.6396 33.6719C16.6716 18.0719 5.72756 26.7119 10.5756 31.9439C14.9916 36.5999 20.8476 38.4719 25.0716 36.0239C25.2156 35.9279 25.4076 35.7839 25.5996 35.6879Z" fill="#222222"/>
</svg>
